RedHatText-BoldItalic.ufo
<glyph name="dollar" format="2">
  <advance width="582"/>
  <unicode hex="0024"/>
  <outline>
    <contour>
      <point x="177" y="-75" type="line"/>
      <point x="244" y="-75" type="line"/>
      <point x="263" y="16" type="line"/>
      <point x="427" y="16"/>
      <point x="536" y="107"/>
      <point x="536" y="244" type="curve"/>
      <point x="536" y="316"/>
      <point x="485" y="378"/>
      <point x="404" y="405" type="curve" smooth="yes"/>
      <point x="350" y="423" type="line"/>
      <point x="375" y="542" type="line"/>
      <point x="416" y="530"/>
      <point x="455" y="506"/>
      <point x="492" y="471" type="curve"/>
      <point x="588" y="581" type="line"/>
      <point x="539" y="629"/>
      <point x="473" y="663"/>
      <point x="404" y="677" type="curve"/>
      <point x="421" y="759" type="line"/>
      <point x="354" y="759" type="line"/>
      <point x="338" y="685" type="line"/>
      <point x="331" y="685" type="line" smooth="yes"/>
      <point x="170" y="685"/>
      <point x="72" y="604"/>
      <point x="72" y="471" type="curve"/>
      <point x="72" y="396"/>
      <point x="121" y="336"/>
      <point x="202" y="311" type="curve" smooth="yes"/>
      <point x="256" y="295" type="line"/>
      <point x="226" y="156" type="line"/>
      <point x="181" y="166"/>
      <point x="138" y="187"/>
      <point x="84" y="226" type="curve"/>
      <point x="-4" y="108" type="line"/>
      <point x="58" y="61"/>
      <point x="125" y="32"/>
      <point x="197" y="21" type="curve"/>
    </contour>
    <contour>
      <point x="260" y="445" type="line" smooth="yes"/>
      <point x="232" y="453"/>
      <point x="216" y="471"/>
      <point x="216" y="493" type="curve" smooth="yes"/>
      <point x="216" y="529"/>
      <point x="251" y="552"/>
      <point x="307" y="552" type="curve" smooth="yes"/>
      <point x="310" y="552" type="line"/>
      <point x="286" y="437" type="line"/>
    </contour>
    <contour>
      <point x="341" y="272" type="line" smooth="yes"/>
      <point x="369" y="262"/>
      <point x="386" y="241"/>
      <point x="386" y="216" type="curve"/>
      <point x="386" y="176"/>
      <point x="353" y="154"/>
      <point x="292" y="151" type="curve"/>
      <point x="319" y="280" type="line"/>
    </contour>
  </outline>
</glyph>
<glyph name="plus" format="2">
  <advance width="550"/>
  <unicode hex="002B"/>
  <outline>
    <contour>
      <point x="304" y="123" type="line"/>
      <point x="341" y="297" type="line"/>
      <point x="503" y="297" type="line"/>
      <point x="529" y="421" type="line"/>
      <point x="368" y="421" type="line"/>
      <point x="404" y="591" type="line"/>
      <point x="288" y="591" type="line"/>
      <point x="252" y="421" type="line"/>
      <point x="88" y="421" type="line"/>
      <point x="62" y="297" type="line"/>
      <point x="225" y="297" type="line"/>
      <point x="188" y="123" type="line"/>
    </contour>
  </outline>
</glyph>
<glyph name="comma" format="2">
  <advance width="270"/>
  <unicode hex="002C"/>
  <outline>
    <contour>
      <point x="45" y="127" type="line"/>
      <point x="-89" y="-177" type="line"/>
      <point x="25" y="-177" type="line"/>
      <point x="200" y="127" type="line"/>
    </contour>
  </outline>
</glyph>
<glyph name="period" format="2">
  <advance width="269"/>
  <unicode hex="002E"/>
  <outline>
    <contour>
      <point x="108" y="178" type="curve" smooth="yes"/>
      <point x="53" y="178"/>
      <point x="6" y="130"/>
      <point x="6" y="72" type="curve" smooth="yes"/>
      <point x="6" y="25"/>
      <point x="40" y="-11"/>
      <point x="86" y="-11" type="curve" smooth="yes"/>
      <point x="138" y="-11"/>
      <point x="185" y="39"/>
      <point x="185" y="95" type="curve" smooth="yes"/>
      <point x="185" y="142"/>
      <point x="152" y="178"/>
    </contour>
  </outline>
</glyph>
<glyph name="two" format="2">
  <advance width="585"/>
  <unicode hex="0032"/>
  <outline>
    <contour>
      <point x="-5" y="0" type="line"/>
      <point x="487" y="0" type="line"/>
      <point x="516" y="130" type="line"/>
      <point x="225" y="129" type="line"/>
      <point x="467" y="331" type="line" smooth="yes"/>
      <point x="547" y="398"/>
      <point x="584" y="463"/>
      <point x="584" y="536" type="curve"/>
      <point x="584" y="640"/>
      <point x="494" y="709"/>
      <point x="360" y="709" type="curve" smooth="yes"/>
      <point x="276" y="709"/>
      <point x="187" y="675"/>
      <point x="101" y="611" type="curve"/>
      <point x="162" y="501" type="line"/>
      <point x="230" y="553"/>
      <point x="281" y="575"/>
      <point x="333" y="575" type="curve" smooth="yes"/>
      <point x="394" y="575"/>
      <point x="433" y="549"/>
      <point x="433" y="507" type="curve"/>
      <point x="433" y="476"/>
      <point x="410" y="441"/>
      <point x="362" y="400" type="curve" smooth="yes"/>
      <point x="19" y="109" type="line"/>
    </contour>
  </outline>
</glyph>
<glyph name="four" format="2">
  <advance width="676"/>
  <unicode hex="0034"/>
  <outline>
    <contour>
      <point x="650" y="700" type="line"/>
      <point x="474" y="700" type="line"/>
      <point x="45" y="284" type="line"/>
      <point x="17" y="157" type="line"/>
      <point x="384" y="157" type="line"/>
      <point x="351" y="0" type="line"/>
      <point x="501" y="0" type="line"/>
      <point x="534" y="157" type="line"/>
      <point x="616" y="157" type="line"/>
      <point x="645" y="288" type="line"/>
      <point x="562" y="288" type="line"/>
    </contour>
    <contour>
      <point x="202" y="288" type="line"/>
      <point x="467" y="547" type="line"/>
      <point x="412" y="288" type="line"/>
    </contour>
  </outline>
</glyph>
<glyph name="six" format="2">
  <advance width="639"/>
  <unicode hex="0036"/>
  <outline>
    <contour>
      <point x="315" y="-11" type="curve"/>
      <point x="466" y="-11"/>
      <point x="590" y="104"/>
      <point x="590" y="244" type="curve" smooth="yes"/>
      <point x="590" y="352"/>
      <point x="507" y="430"/>
      <point x="391" y="430" type="curve"/>
      <point x="324" y="430"/>
      <point x="259" y="396"/>
      <point x="207" y="334" type="curve"/>
      <point x="228" y="472"/>
      <point x="316" y="574"/>
      <point x="421" y="574" type="curve"/>
      <point x="478" y="574"/>
      <point x="521" y="556"/>
      <point x="554" y="519" type="curve"/>
      <point x="657" y="620" type="line"/>
      <point x="608" y="676"/>
      <point x="530" y="709"/>
      <point x="445" y="709" type="curve"/>
      <point x="230" y="709"/>
      <point x="54" y="513"/>
      <point x="54" y="274" type="curve" smooth="yes"/>
      <point x="54" y="99"/>
      <point x="155" y="-11"/>
    </contour>
    <contour>
      <point x="345" y="313" type="curve"/>
      <point x="402" y="313"/>
      <point x="443" y="276"/>
      <point x="443" y="225" type="curve" smooth="yes"/>
      <point x="443" y="167"/>
      <point x="392" y="122"/>
      <point x="326" y="122" type="curve"/>
      <point x="253" y="122"/>
      <point x="206" y="175"/>
      <point x="202" y="260" type="curve"/>
      <point x="245" y="295"/>
      <point x="294" y="313"/>
    </contour>
  </outline>
</glyph>
<glyph name="eight" format="2">
  <advance width="626"/>
  <unicode hex="0038"/>
  <note>
Version created Tue Sep 18 15:49:42 2018
</note>
  <outline>
    <contour>
      <point x="283" y="-11" type="curve"/>
      <point x="442" y="-11"/>
      <point x="567" y="88"/>
      <point x="567" y="215" type="curve" smooth="yes"/>
      <point x="567" y="276"/>
      <point x="528" y="326"/>
      <point x="468" y="351" type="curve"/>
      <point x="551" y="379"/>
      <point x="613" y="450"/>
      <point x="613" y="528" type="curve" smooth="yes"/>
      <point x="613" y="634"/>
      <point x="518" y="710"/>
      <point x="385" y="710" type="curve"/>
      <point x="237" y="710"/>
      <point x="115" y="610"/>
      <point x="115" y="488" type="curve" smooth="yes"/>
      <point x="115" y="437"/>
      <point x="145" y="393"/>
      <point x="194" y="367" type="curve"/>
      <point x="100" y="342"/>
      <point x="30" y="265"/>
      <point x="30" y="176" type="curve" smooth="yes"/>
      <point x="30" y="65"/>
      <point x="132" y="-11"/>
    </contour>
    <contour>
      <point x="355" y="411" type="curve"/>
      <point x="302" y="411"/>
      <point x="263" y="443"/>
      <point x="263" y="488" type="curve"/>
      <point x="263" y="540"/>
      <point x="312" y="583"/>
      <point x="371" y="583" type="curve"/>
      <point x="423" y="583"/>
      <point x="461" y="550"/>
      <point x="461" y="505" type="curve"/>
      <point x="461" y="455"/>
      <point x="412" y="411"/>
    </contour>
    <contour>
      <point x="295" y="118" type="curve"/>
      <point x="230" y="118"/>
      <point x="186" y="153"/>
      <point x="186" y="203" type="curve"/>
      <point x="186" y="257"/>
      <point x="239" y="300"/>
      <point x="306" y="300" type="curve"/>
      <point x="371" y="300"/>
      <point x="416" y="265"/>
      <point x="416" y="216" type="curve"/>
      <point x="416" y="161"/>
      <point x="362" y="118"/>
    </contour>
  </outline>
</glyph>
<glyph name="less" format="2">
  <advance width="530"/>
  <unicode hex="003C"/>
  <outline>
    <contour>
      <point x="321" y="43" type="line"/>
      <point x="421" y="133" type="line"/>
      <point x="216" y="343" type="line"/>
      <point x="512" y="554" type="line"/>
      <point x="450" y="652" type="line"/>
      <point x="36" y="348" type="line"/>
    </contour>
  </outline>
</glyph>
<glyph name="at" format="2">
  <advance width="767"/>
  <unicode hex="0040"/>
  <outline>
    <contour>
      <point x="334" y="47" type="curve" smooth="yes"/>
      <point x="369" y="47"/>
      <point x="404" y="61"/>
      <point x="433" y="86" type="curve"/>
      <point x="452" y="60"/>
      <point x="487" y="46"/>
      <point x="534" y="46" type="curve" smooth="yes"/>
      <point x="642" y="46"/>
      <point x="718" y="142"/>
      <point x="718" y="279" type="curve"/>
      <point x="718" y="450"/>
      <point x="577" y="583"/>
      <point x="395" y="583" type="curve"/>
      <point x="191" y="583"/>
      <point x="40" y="424"/>
      <point x="40" y="207" type="curve"/>
      <point x="40" y="4"/>
      <point x="189" y="-144"/>
      <point x="395" y="-144" type="curve"/>
      <point x="457" y="-144"/>
      <point x="514" y="-130"/>
      <point x="575" y="-101" type="curve"/>
      <point x="549" y="-39" type="line"/>
      <point x="503" y="-63"/>
      <point x="452" y="-74"/>
      <point x="394" y="-74" type="curve"/>
      <point x="227" y="-74"/>
      <point x="111" y="44"/>
      <point x="111" y="214" type="curve"/>
      <point x="111" y="387"/>
      <point x="233" y="519"/>
      <point x="392" y="519" type="curve"/>
      <point x="536" y="519"/>
      <point x="645" y="413"/>
      <point x="645" y="272" type="curve"/>
      <point x="645" y="181"/>
      <point x="606" y="119"/>
      <point x="549" y="119" type="curve" smooth="yes"/>
      <point x="519" y="119"/>
      <point x="505" y="136"/>
      <point x="512" y="167" type="curve" smooth="yes"/>
      <point x="554" y="375" type="line"/>
      <point x="455" y="375" type="line"/>
      <point x="452" y="358" type="line"/>
      <point x="429" y="377"/>
      <point x="399" y="388"/>
      <point x="366" y="388" type="curve" smooth="yes"/>
      <point x="270" y="388"/>
      <point x="195" y="307"/>
      <point x="195" y="203" type="curve" smooth="yes"/>
      <point x="195" y="116"/>
      <point x="256" y="47"/>
    </contour>
    <contour>
      <point x="289" y="212" type="curve" smooth="yes"/>
      <point x="289" y="260"/>
      <point x="326" y="301"/>
      <point x="370" y="301" type="curve" smooth="yes"/>
      <point x="398" y="301"/>
      <point x="420" y="290"/>
      <point x="435" y="269" type="curve"/>
      <point x="418" y="182" type="line" smooth="yes"/>
      <point x="416" y="172"/>
      <point x="415" y="163"/>
      <point x="415" y="153" type="curve"/>
      <point x="397" y="138"/>
      <point x="378" y="131"/>
      <point x="358" y="131" type="curve" smooth="yes"/>
      <point x="318" y="131"/>
      <point x="289" y="165"/>
    </contour>
  </outline>
</glyph>
<glyph name="D" format="2">
  <advance width="745"/>
  <unicode hex="0044"/>
  <anchor x="467" y="700" name="top"/>
  <outline>
    <contour>
      <point x="21" y="0" type="line"/>
      <point x="337" y="0" type="line" smooth="yes"/>
      <point x="545" y="0"/>
      <point x="721" y="178"/>
      <point x="721" y="387" type="curve" smooth="yes"/>
      <point x="721" y="566"/>
      <point x="588" y="700"/>
      <point x="412" y="700" type="curve" smooth="yes"/>
      <point x="170" y="700" type="line"/>
    </contour>
    <contour>
      <point x="395" y="553" type="line" smooth="yes"/>
      <point x="480" y="553"/>
      <point x="544" y="476"/>
      <point x="544" y="373" type="curve" smooth="yes"/>
      <point x="544" y="248"/>
      <point x="458" y="147"/>
      <point x="353" y="147" type="curve" smooth="yes"/>
      <point x="220" y="147" type="line"/>
      <point x="307" y="553" type="line"/>
    </contour>
  </outline>
</glyph>
<glyph name="F" format="2">
  <advance width="652"/>
  <unicode hex="0046"/>
  <outline>
    <contour>
      <point x="21" y="0" type="line"/>
      <point x="189" y="0" type="line"/>
      <point x="248" y="278" type="line"/>
      <point x="495" y="278" type="line"/>
      <point x="525" y="418" type="line"/>
      <point x="278" y="418" type="line"/>
      <point x="307" y="556" type="line"/>
      <point x="660" y="556" type="line"/>
      <point x="692" y="700" type="line"/>
      <point x="170" y="700" type="line"/>
    </contour>
  </outline>
</glyph>
<glyph name="H" format="2">
  <advance width="748"/>
  <unicode hex="0048"/>
  <anchor x="468" y="700" name="top"/>
  <outline>
    <contour>
      <point x="11" y="0" type="line"/>
      <point x="179" y="0" type="line"/>
      <point x="238" y="277" type="line"/>
      <point x="516" y="277" type="line"/>
      <point x="457" y="0" type="line"/>
      <point x="625" y="0" type="line"/>
      <point x="774" y="700" type="line"/>
      <point x="606" y="700" type="line"/>
      <point x="548" y="428" type="line"/>
      <point x="270" y="428" type="line"/>
      <point x="328" y="700" type="line"/>
      <point x="160" y="700" type="line"/>
    </contour>
  </outline>
</glyph>
<glyph name="L" format="2">
  <advance width="637"/>
  <unicode hex="004C"/>
  <anchor x="253" y="700" name="top"/>
  <anchor x="297" y="0" name="bottom"/>
  <outline>
    <contour>
      <point x="21" y="0" type="line"/>
      <point x="529" y="0" type="line"/>
      <point x="561" y="147" type="line"/>
      <point x="220" y="147" type="line"/>
      <point x="338" y="700" type="line"/>
      <point x="170" y="700" type="line"/>
    </contour>
  </outline>
</glyph>
<glyph name="Q" format="2">
  <advance width="797"/>
  <unicode hex="0051"/>
  <outline>
    <contour>
      <point x="772" y="380" type="curve" smooth="yes"/>
      <point x="772" y="570"/>
      <point x="632" y="711"/>
      <point x="444" y="711" type="curve" smooth="yes"/>
      <point x="235" y="711"/>
      <point x="63" y="535"/>
      <point x="63" y="320" type="curve" smooth="yes"/>
      <point x="63" y="130"/>
      <point x="204" y="-11"/>
      <point x="392" y="-11" type="curve" smooth="yes"/>
      <point x="433" y="-11"/>
      <point x="473" y="-4"/>
      <point x="510" y="8" type="curve"/>
      <point x="548" y="-55" type="line"/>
      <point x="678" y="-3" type="line"/>
      <point x="630" y="76" type="line"/>
      <point x="717" y="148"/>
      <point x="772" y="258"/>
    </contour>
    <contour>
      <point x="504" y="284" type="line"/>
      <point x="375" y="232" type="line"/>
      <point x="428" y="144" type="line"/>
      <point x="420" y="143"/>
      <point x="412" y="142"/>
      <point x="403" y="142" type="curve" smooth="yes"/>
      <point x="307" y="142"/>
      <point x="237" y="221"/>
      <point x="237" y="331" type="curve" smooth="yes"/>
      <point x="237" y="457"/>
      <point x="324" y="558"/>
      <point x="433" y="558" type="curve" smooth="yes"/>
      <point x="529" y="558"/>
      <point x="599" y="479"/>
      <point x="599" y="369" type="curve" smooth="yes"/>
      <point x="599" y="309"/>
      <point x="579" y="254"/>
      <point x="547" y="214" type="curve"/>
    </contour>
  </outline>
</glyph>
<glyph name="U" format="2">
  <advance width="734"/>
  <unicode hex="0055"/>
  <anchor x="447" y="700" name="top"/>
  <anchor x="418" y="0" name="bottom"/>
  <outline>
    <contour>
      <point x="673" y="272" type="curve" smooth="yes"/>
      <point x="764" y="700" type="line"/>
      <point x="596" y="700" type="line"/>
      <point x="509" y="289" type="line" smooth="yes"/>
      <point x="491" y="202"/>
      <point x="428" y="144"/>
      <point x="354" y="144" type="curve" smooth="yes"/>
      <point x="265" y="144"/>
      <point x="221" y="213"/>
      <point x="244" y="319" type="curve" smooth="yes"/>
      <point x="325" y="700" type="line"/>
      <point x="156" y="700" type="line"/>
      <point x="79" y="337" type="line" smooth="yes"/>
      <point x="35" y="131"/>
      <point x="141" y="-9"/>
      <point x="342" y="-9" type="curve" smooth="yes"/>
      <point x="512" y="-9"/>
      <point x="636" y="97"/>
    </contour>
  </outline>
</glyph>
<glyph name="backslash" format="2">
  <advance width="523"/>
  <unicode hex="005C"/>
  <outline>
    <contour>
      <point x="473" y="-211" type="line"/>
      <point x="273" y="700" type="line"/>
      <point x="124" y="700" type="line"/>
      <point x="324" y="-211" type="line"/>
    </contour>
  </outline>
</glyph>
<glyph name="asciicircum" format="2">
  <advance width="550"/>
  <unicode hex="005E"/>
  <outline>
    <contour>
      <point x="58" y="350" type="line"/>
      <point x="184" y="350" type="line"/>
      <point x="346" y="584" type="line"/>
      <point x="409" y="350" type="line"/>
      <point x="528" y="350" type="line"/>
      <point x="432" y="700" type="line"/>
      <point x="303" y="700" type="line"/>
    </contour>
  </outline>
</glyph>
<glyph name="c" format="2">
  <advance width="528"/>
  <unicode hex="0063"/>
  <anchor x="320" y="516" name="top"/>
  <anchor x="279" y="0" name="bottom"/>
  <outline>
    <contour>
      <point x="300" y="129" type="curve" smooth="yes"/>
      <point x="236" y="129"/>
      <point x="196" y="171"/>
      <point x="196" y="239" type="curve" smooth="yes"/>
      <point x="196" y="320"/>
      <point x="250" y="385"/>
      <point x="318" y="385" type="curve" smooth="yes"/>
      <point x="366" y="385"/>
      <point x="400" y="365"/>
      <point x="424" y="322" type="curve"/>
      <point x="536" y="414" type="line"/>
      <point x="492" y="484"/>
      <point x="413" y="524"/>
      <point x="321" y="524" type="curve" smooth="yes"/>
      <point x="163" y="524"/>
      <point x="38" y="392"/>
      <point x="38" y="225" type="curve" smooth="yes"/>
      <point x="38" y="89"/>
      <point x="138" y="-11"/>
      <point x="275" y="-11" type="curve" smooth="yes"/>
      <point x="351" y="-11"/>
      <point x="423" y="18"/>
      <point x="476" y="71" type="curve"/>
      <point x="398" y="172" type="line"/>
      <point x="370" y="143"/>
      <point x="338" y="129"/>
    </contour>
  </outline>
</glyph>
<glyph name="e" format="2">
  <advance width="583"/>
  <unicode hex="0065"/>
  <outline>
    <contour>
      <point x="491" y="57" type="curve"/>
      <point x="404" y="155" type="line"/>
      <point x="380" y="130"/>
      <point x="346" y="117"/>
      <point x="307" y="117" type="curve" smooth="yes"/>
      <point x="245" y="117"/>
      <point x="200" y="157"/>
      <point x="191" y="217" type="curve"/>
      <point x="537" y="217" type="line"/>
      <point x="541" y="238"/>
      <point x="543" y="262"/>
      <point x="543" y="293" type="curve" smooth="yes"/>
      <point x="543" y="430"/>
      <point x="452" y="524"/>
      <point x="318" y="524" type="curve" smooth="yes"/>
      <point x="165" y="524"/>
      <point x="38" y="391"/>
      <point x="38" y="233" type="curve" smooth="yes"/>
      <point x="38" y="90"/>
      <point x="143" y="-11"/>
      <point x="290" y="-11" type="curve" smooth="yes"/>
      <point x="365" y="-11"/>
      <point x="425" y="9"/>
    </contour>
    <contour>
      <point x="309" y="397" type="curve" smooth="yes"/>
      <point x="360" y="397"/>
      <point x="395" y="363"/>
      <point x="403" y="308" type="curve"/>
      <point x="201" y="308" type="line"/>
      <point x="220" y="362"/>
      <point x="260" y="397"/>
    </contour>
  </outline>
</glyph>
<glyph name="g" format="2">
  <advance width="628"/>
  <unicode hex="0067"/>
  <note>
Version created Sun Jan 13 16:53:00 2019
</note>
  <anchor x="348" y="516" name="top"/>
  <outline>
    <contour>
      <point x="236" y="1" type="curve" smooth="yes"/>
      <point x="286" y="1"/>
      <point x="333" y="20"/>
      <point x="367" y="53" type="curve"/>
      <point x="353" y="-17" type="line" smooth="yes"/>
      <point x="342" y="-72"/>
      <point x="305" y="-100"/>
      <point x="245" y="-100" type="curve" smooth="yes"/>
      <point x="193" y="-100"/>
      <point x="134" y="-80"/>
      <point x="77" y="-42" type="curve"/>
      <point x="9" y="-153" type="line"/>
      <point x="75" y="-198"/>
      <point x="167" y="-225"/>
      <point x="252" y="-225" type="curve" smooth="yes"/>
      <point x="391" y="-225"/>
      <point x="480" y="-159"/>
      <point x="506" y="-35" type="curve" smooth="yes"/>
      <point x="622" y="516" type="line"/>
      <point x="466" y="516" type="line"/>
      <point x="451" y="443" type="line"/>
      <point x="418" y="492"/>
      <point x="366" y="519"/>
      <point x="302" y="519" type="curve" smooth="yes"/>
      <point x="159" y="519"/>
      <point x="43" y="392"/>
      <point x="43" y="235" type="curve" smooth="yes"/>
      <point x="43" y="103"/>
      <point x="127" y="1"/>
    </contour>
    <contour>
      <point x="199" y="248" type="curve" smooth="yes"/>
      <point x="199" y="327"/>
      <point x="254" y="385"/>
      <point x="327" y="385" type="curve" smooth="yes"/>
      <point x="367" y="385"/>
      <point x="404" y="369"/>
      <point x="427" y="343" type="curve"/>
      <point x="391" y="166" type="line"/>
      <point x="365" y="143"/>
      <point x="338" y="132"/>
      <point x="306" y="132" type="curve" smooth="yes"/>
      <point x="243" y="132"/>
      <point x="199" y="180"/>
    </contour>
  </outline>
</glyph>
<glyph name="r" format="2">
  <advance width="433"/>
  <unicode hex="0072"/>
  <anchor x="311" y="516" name="top"/>
  <anchor x="88" y="0" name="bottom"/>
  <outline>
    <contour>
      <point x="6" y="0" type="line"/>
      <point x="165" y="0" type="line"/>
      <point x="237" y="333" type="line"/>
      <point x="267" y="368"/>
      <point x="313" y="389"/>
      <point x="357" y="389" type="curve" smooth="yes"/>
      <point x="386" y="389"/>
      <point x="424" y="380"/>
      <point x="437" y="369" type="curve"/>
      <point x="466" y="507" type="line"/>
      <point x="449" y="518"/>
      <point x="428" y="524"/>
      <point x="404" y="524" type="curve" smooth="yes"/>
      <point x="349" y="524"/>
      <point x="301" y="486"/>
      <point x="253" y="405" type="curve"/>
      <point x="277" y="516" type="line"/>
      <point x="118" y="516" type="line"/>
    </contour>
  </outline>
</glyph>
<glyph name="y" format="2">
  <advance width="572"/>
  <unicode hex="0079"/>
  <anchor x="337" y="516" name="top"/>
  <outline>
    <contour>
      <point x="120" y="-30" type="line" smooth="yes"/>
      <point x="102" y="-62"/>
      <point x="74" y="-76"/>
      <point x="28" y="-76" type="curve" smooth="yes"/>
      <point x="15" y="-76"/>
      <point x="-4" y="-74"/>
      <point x="-21" y="-70" type="curve"/>
      <point x="-50" y="-205" type="line"/>
      <point x="-16" y="-214"/>
      <point x="12" y="-218"/>
      <point x="39" y="-218" type="curve" smooth="yes"/>
      <point x="137" y="-218"/>
      <point x="211" y="-171"/>
      <point x="271" y="-71" type="curve" smooth="yes"/>
      <point x="624" y="516" type="line"/>
      <point x="451" y="516" type="line"/>
      <point x="255" y="169" type="line"/>
      <point x="222" y="516" type="line"/>
      <point x="58" y="516" type="line"/>
      <point x="132" y="-9" type="line"/>
    </contour>
  </outline>
</glyph>
<glyph name="braceleft" format="2">
  <advance width="447"/>
  <unicode hex="007B"/>
  <outline>
    <contour>
      <point x="261" y="72" type="line" smooth="yes"/>
      <point x="306" y="147"/>
      <point x="277" y="216"/>
      <point x="194" y="238" type="curve"/>
      <point x="276" y="252"/>
      <point x="330" y="316"/>
      <point x="323" y="394" type="curve" smooth="yes"/>
      <point x="312" y="500" type="line" smooth="yes"/>
      <point x="307" y="552"/>
      <point x="335" y="587"/>
      <point x="382" y="587" type="curve"/>
      <point x="397" y="587"/>
      <point x="424" y="580"/>
      <point x="440" y="572" type="curve"/>
      <point x="485" y="686" type="line"/>
      <point x="451" y="702"/>
      <point x="417" y="709"/>
      <point x="372" y="709" type="curve"/>
      <point x="250" y="709"/>
      <point x="170" y="623"/>
      <point x="184" y="507" type="curve" smooth="yes"/>
      <point x="196" y="405" type="line" smooth="yes"/>
      <point x="203" y="345"/>
      <point x="168" y="302"/>
      <point x="112" y="302" type="curve" smooth="yes"/>
      <point x="32" y="302" type="line"/>
      <point x="7" y="184" type="line"/>
      <point x="87" y="184" type="line" smooth="yes"/>
      <point x="145" y="184"/>
      <point x="163" y="134"/>
      <point x="127" y="76" type="curve" smooth="yes"/>
      <point x="80" y="-1" type="line" smooth="yes"/>
      <point x="7" y="-120"/>
      <point x="66" y="-222"/>
      <point x="208" y="-222" type="curve"/>
      <point x="239" y="-222"/>
      <point x="267" y="-218"/>
      <point x="296" y="-210" type="curve"/>
      <point x="299" y="-94" type="line"/>
      <point x="284" y="-99"/>
      <point x="268" y="-102"/>
      <point x="253" y="-102" type="curve"/>
      <point x="199" y="-102"/>
      <point x="182" y="-63"/>
      <point x="214" y="-9" type="curve" smooth="yes"/>
    </contour>
  </outline>
</glyph>
<glyph name="asciitilde" format="2">
  <advance width="605"/>
  <unicode hex="007E"/>
  <outline>
    <contour>
      <point x="310" y="446" type="line" smooth="yes"/>
      <point x="276" y="466"/>
      <point x="239" y="478"/>
      <point x="209" y="478" type="curve" smooth="yes"/>
      <point x="139" y="478"/>
      <point x="82" y="420"/>
      <point x="48" y="314" type="curve"/>
      <point x="151" y="291" type="line"/>
      <point x="167" y="336"/>
      <point x="188" y="358"/>
      <point x="216" y="358" type="curve" smooth="yes"/>
      <point x="231" y="358"/>
      <point x="248" y="352"/>
      <point x="273" y="336" type="curve" smooth="yes"/>
      <point x="343" y="293" type="line" smooth="yes"/>
      <point x="375" y="273"/>
      <point x="413" y="261"/>
      <point x="443" y="261" type="curve" smooth="yes"/>
      <point x="513" y="261"/>
      <point x="571" y="319"/>
      <point x="606" y="425" type="curve"/>
      <point x="502" y="449" type="line"/>
      <point x="485" y="402"/>
      <point x="465" y="381"/>
      <point x="437" y="381" type="curve" smooth="yes"/>
      <point x="422" y="381"/>
      <point x="404" y="388"/>
      <point x="380" y="403" type="curve" smooth="yes"/>
    </contour>
  </outline>
</glyph>
<glyph name="cent" format="2">
  <advance width="529"/>
  <unicode hex="00A2"/>
  <outline>
    <contour>
      <point x="193" y="-110" type="line"/>
      <point x="255" y="-110" type="line"/>
      <point x="276" y="-11" type="line"/>
      <point x="351" y="-11"/>
      <point x="423" y="18"/>
      <point x="476" y="71" type="curve"/>
      <point x="398" y="172" type="line"/>
      <point x="371" y="144"/>
      <point x="341" y="130"/>
      <point x="306" y="129" type="curve"/>
      <point x="359" y="379" type="line"/>
      <point x="386" y="370"/>
      <point x="407" y="352"/>
      <point x="424" y="322" type="curve"/>
      <point x="536" y="414" type="line"/>
      <point x="503" y="466"/>
      <point x="451" y="502"/>
      <point x="388" y="516" type="curve"/>
      <point x="411" y="625" type="line"/>
      <point x="349" y="625" type="line"/>
      <point x="328" y="524" type="line"/>
      <point x="321" y="524" type="line" smooth="yes"/>
      <point x="163" y="524"/>
      <point x="38" y="392"/>
      <point x="38" y="225" type="curve" smooth="yes"/>
      <point x="38" y="110"/>
      <point x="110" y="20"/>
      <point x="215" y="-4" type="curve"/>
    </contour>
    <contour>
      <point x="196" y="239" type="curve" smooth="yes"/>
      <point x="196" y="312"/>
      <point x="240" y="372"/>
      <point x="298" y="383" type="curve"/>
      <point x="246" y="141" type="line"/>
      <point x="214" y="159"/>
      <point x="196" y="193"/>
    </contour>
  </outline>
</glyph>
<glyph name="sterling" format="2">
  <advance width="656"/>
  <unicode hex="00A3"/>
  <outline>
    <contour>
      <point x="211" y="28" type="curve" smooth="yes"/>
      <point x="333" y="-17" type="line" smooth="yes"/>
      <point x="446" y="-57"/>
      <point x="529" y="-31"/>
      <point x="607" y="70" type="curve"/>
      <point x="505" y="149" type="line"/>
      <point x="465" y="98"/>
      <point x="426" y="84"/>
      <point x="377" y="103" type="curve" smooth="yes"/>
      <point x="261" y="146" type="line"/>
      <point x="294" y="174"/>
      <point x="311" y="214"/>
      <point x="310" y="265" type="curve" smooth="yes"/>
      <point x="310" y="275" type="line"/>
      <point x="452" y="275" type="line"/>
      <point x="474" y="377" type="line"/>
      <point x="309" y="377" type="line"/>
      <point x="308" y="451" type="line" smooth="yes"/>
      <point x="306" y="527"/>
      <point x="347" y="577"/>
      <point x="412" y="577" type="curve"/>
      <point x="476" y="577"/>
      <point x="512" y="544"/>
      <point x="524" y="473" type="curve"/>
      <point x="664" y="510" type="line"/>
      <point x="640" y="639"/>
      <point x="553" y="708"/>
      <point x="415" y="708" type="curve"/>
      <point x="266" y="708"/>
      <point x="157" y="593"/>
      <point x="160" y="441" type="curve" smooth="yes"/>
      <point x="160" y="377" type="line"/>
      <point x="86" y="377" type="line"/>
      <point x="64" y="275" type="line"/>
      <point x="161" y="275" type="line"/>
      <point x="161" y="218" type="line" smooth="yes"/>
      <point x="161" y="197"/>
      <point x="154" y="180"/>
      <point x="140" y="166" type="curve"/>
      <point x="78" y="161"/>
      <point x="25" y="127"/>
      <point x="-23" y="63" type="curve"/>
      <point x="81" y="-23" type="line"/>
      <point x="122" y="30"/>
      <point x="161" y="45"/>
    </contour>
  </outline>
</glyph>
<glyph name="uni00A6" format="2">
  <advance width="358"/>
  <unicode hex="00A6"/>
  <guideline x="172" y="243" angle="90.0" identifier="XTyy9EqEPV"/>
  <guideline x="172" y="243" angle="0" identifier="LLOqWJEsWZ"/>
  <outline>
    <contour>
      <point x="258" y="283" type="line"/>
      <point x="347" y="700" type="line"/>
      <point x="198" y="700" type="line"/>
      <point x="109" y="283" type="line"/>
    </contour>
    <contour>
      <point x="4" y="-214" type="line"/>
      <point x="153" y="-214" type="line"/>
      <point x="241" y="203" type="line"/>
      <point x="92" y="203" type="line"/>
    </contour>
  </outline>
</glyph>
<glyph name="section" format="2">
  <advance width="573"/>
  <unicode hex="00A7"/>
  <outline>
    <contour>
      <point x="439" y="112" type="curve" smooth="yes"/>
      <point x="439" y="136"/>
      <point x="434" y="156"/>
      <point x="424" y="174" type="curve"/>
      <point x="499" y="196"/>
      <point x="545" y="252"/>
      <point x="545" y="328" type="curve" smooth="yes"/>
      <point x="545" y="384"/>
      <point x="513" y="422"/>
      <point x="429" y="467" type="curve" smooth="yes"/>
      <point x="337" y="516" type="line" smooth="yes"/>
      <point x="313" y="529"/>
      <point x="303" y="542"/>
      <point x="303" y="560" type="curve" smooth="yes"/>
      <point x="303" y="586"/>
      <point x="327" y="606"/>
      <point x="358" y="606" type="curve" smooth="yes"/>
      <point x="399" y="606"/>
      <point x="449" y="582"/>
      <point x="497" y="540" type="curve"/>
      <point x="575" y="627" type="line"/>
      <point x="514" y="680"/>
      <point x="439" y="709"/>
      <point x="360" y="709" type="curve" smooth="yes"/>
      <point x="248" y="709"/>
      <point x="166" y="639"/>
      <point x="166" y="544" type="curve" smooth="yes"/>
      <point x="166" y="521"/>
      <point x="171" y="500"/>
      <point x="180" y="482" type="curve"/>
      <point x="106" y="460"/>
      <point x="60" y="404"/>
      <point x="60" y="329" type="curve" smooth="yes"/>
      <point x="60" y="272"/>
      <point x="92" y="233"/>
      <point x="174" y="189" type="curve" smooth="yes"/>
      <point x="266" y="140" type="line" smooth="yes"/>
      <point x="290" y="126"/>
      <point x="300" y="114"/>
      <point x="300" y="96" type="curve" smooth="yes"/>
      <point x="300" y="70"/>
      <point x="276" y="50"/>
      <point x="245" y="50" type="curve" smooth="yes"/>
      <point x="204" y="50"/>
      <point x="155" y="73"/>
      <point x="105" y="116" type="curve"/>
      <point x="28" y="29" type="line"/>
      <point x="89" y="-24"/>
      <point x="164" y="-53"/>
      <point x="243" y="-53" type="curve" smooth="yes"/>
      <point x="356" y="-53"/>
      <point x="439" y="17"/>
    </contour>
    <contour>
      <point x="333" y="250" type="curve" smooth="yes"/>
      <point x="231" y="300" type="line" smooth="yes"/>
      <point x="200" y="317"/>
      <point x="187" y="333"/>
      <point x="187" y="354" type="curve" smooth="yes"/>
      <point x="187" y="388"/>
      <point x="214" y="413"/>
      <point x="253" y="415" type="curve"/>
      <point x="258" y="412"/>
      <point x="264" y="409"/>
      <point x="270" y="406" type="curve" smooth="yes"/>
      <point x="372" y="356" type="line" smooth="yes"/>
      <point x="403" y="339"/>
      <point x="416" y="323"/>
      <point x="416" y="302" type="curve" smooth="yes"/>
      <point x="416" y="269"/>
      <point x="389" y="243"/>
      <point x="350" y="241" type="curve"/>
      <point x="345" y="244"/>
      <point x="339" y="247"/>
    </contour>
  </outline>
</glyph>
<glyph name="dieresis" format="2">
  <advance width="596"/>
  <unicode hex="00A8"/>
  <anchor x="354" y="516" name="_top"/>
  <outline>
    <contour>
      <point x="265" y="602" type="curve" smooth="yes"/>
      <point x="311" y="602"/>
      <point x="353" y="645"/>
      <point x="353" y="694" type="curve" smooth="yes"/>
      <point x="353" y="735"/>
      <point x="323" y="766"/>
      <point x="285" y="766" type="curve" smooth="yes"/>
      <point x="237" y="766"/>
      <point x="195" y="724"/>
      <point x="195" y="674" type="curve" smooth="yes"/>
      <point x="195" y="633"/>
      <point x="225" y="602"/>
    </contour>
    <contour>
      <point x="491" y="602" type="curve" smooth="yes"/>
      <point x="538" y="602"/>
      <point x="579" y="645"/>
      <point x="579" y="694" type="curve" smooth="yes"/>
      <point x="579" y="735"/>
      <point x="550" y="766"/>
      <point x="511" y="766" type="curve" smooth="yes"/>
      <point x="463" y="766"/>
      <point x="421" y="723"/>
      <point x="421" y="674" type="curve" smooth="yes"/>
      <point x="421" y="633"/>
      <point x="452" y="602"/>
    </contour>
  </outline>
</glyph>
<glyph name="macron" format="2">
  <advance width="510"/>
  <unicode hex="00AF"/>
  <anchor x="311" y="516" name="_top"/>
  <outline>
    <contour>
      <point x="518" y="726" type="line"/>
      <point x="196" y="726" type="line"/>
      <point x="174" y="626" type="line"/>
      <point x="496" y="626" type="line"/>
    </contour>
  </outline>
</glyph>
<glyph name="degree" format="2">
  <advance width="383"/>
  <unicode hex="00B0"/>
  <outline>
    <contour>
      <point x="242" y="416" type="curve" smooth="yes"/>
      <point x="330" y="416"/>
      <point x="405" y="492"/>
      <point x="405" y="580" type="curve" smooth="yes"/>
      <point x="405" y="656"/>
      <point x="348" y="710"/>
      <point x="270" y="710" type="curve" smooth="yes"/>
      <point x="183" y="710"/>
      <point x="108" y="634"/>
      <point x="108" y="546" type="curve" smooth="yes"/>
      <point x="108" y="471"/>
      <point x="164" y="416"/>
    </contour>
    <contour>
      <point x="247" y="496" type="curve" smooth="yes"/>
      <point x="217" y="496"/>
      <point x="191" y="523"/>
      <point x="191" y="556" type="curve"/>
      <point x="191" y="596"/>
      <point x="224" y="629"/>
      <point x="264" y="629" type="curve" smooth="yes"/>
      <point x="297" y="629"/>
      <point x="322" y="603"/>
      <point x="322" y="570" type="curve" smooth="yes"/>
      <point x="322" y="529"/>
      <point x="288" y="496"/>
    </contour>
  </outline>
</glyph>
<glyph name="acute" format="2">
  <advance width="509"/>
  <unicode hex="00B4"/>
  <anchor x="281" y="516" name="_top"/>
  <outline>
    <contour>
      <point x="374" y="747" type="line"/>
      <point x="207" y="601" type="line"/>
      <point x="351" y="601" type="line"/>
      <point x="568" y="747" type="line"/>
    </contour>
  </outline>
</glyph>
<glyph name="uni00B5" format="2">
  <advance width="631"/>
  <unicode hex="00B5"/>
  <outline>
    <contour>
      <point x="274" y="529" type="line"/>
      <point x="112" y="529" type="line"/>
      <point x="-45" y="-211" type="line"/>
      <point x="117" y="-211" type="line"/>
      <point x="161" y="-5" type="line"/>
      <point x="176" y="-8"/>
      <point x="192" y="-10"/>
      <point x="209" y="-10" type="curve"/>
      <point x="263" y="-10"/>
      <point x="315" y="6"/>
      <point x="361" y="36" type="curve"/>
      <point x="353" y="0" type="line"/>
      <point x="515" y="0" type="line"/>
      <point x="627" y="529" type="line"/>
      <point x="465" y="529" type="line"/>
      <point x="389" y="171" type="line"/>
      <point x="362" y="144"/>
      <point x="326" y="129"/>
      <point x="285" y="129" type="curve" smooth="yes"/>
      <point x="227" y="129"/>
      <point x="197" y="167"/>
      <point x="210" y="225" type="curve"/>
    </contour>
  </outline>
</glyph>
<glyph name="cedilla" format="2">
  <advance width="510"/>
  <unicode hex="00B8"/>
  <anchor x="228" y="0" name="_bottom"/>
  <outline>
    <contour>
      <point x="322" y="-136" type="curve" smooth="yes"/>
      <point x="322" y="-94"/>
      <point x="291" y="-66"/>
      <point x="237" y="-59" type="curve"/>
      <point x="263" y="0" type="line"/>
      <point x="190" y="0" type="line"/>
      <point x="143" y="-109" type="line"/>
      <point x="184" y="-109" type="line" smooth="yes"/>
      <point x="215" y="-109"/>
      <point x="235" y="-123"/>
      <point x="235" y="-144" type="curve" smooth="yes"/>
      <point x="235" y="-167"/>
      <point x="214" y="-182"/>
      <point x="182" y="-182" type="curve" smooth="yes"/>
      <point x="152" y="-182"/>
      <point x="124" y="-170"/>
      <point x="105" y="-150" type="curve"/>
      <point x="50" y="-205" type="line"/>
      <point x="80" y="-238"/>
      <point x="124" y="-253"/>
      <point x="184" y="-253" type="curve" smooth="yes"/>
      <point x="261" y="-253"/>
      <point x="322" y="-201"/>
    </contour>
  </outline>
</glyph>
<glyph name="Eth" format="2">
  <advance width="760"/>
  <unicode hex="00D0"/>
  <outline>
    <contour>
      <point x="36" y="0" type="line"/>
      <point x="352" y="0" type="line" smooth="yes"/>
      <point x="560" y="0"/>
      <point x="736" y="178"/>
      <point x="736" y="387" type="curve" smooth="yes"/>
      <point x="736" y="566"/>
      <point x="603" y="700"/>
      <point x="427" y="700" type="curve" smooth="yes"/>
      <point x="185" y="700" type="line"/>
      <point x="125" y="418" type="line"/>
      <point x="46" y="418" type="line"/>
      <point x="18" y="283" type="line"/>
      <point x="96" y="283" type="line"/>
    </contour>
    <contour>
      <point x="410" y="553" type="line" smooth="yes"/>
      <point x="495" y="553"/>
      <point x="559" y="476"/>
      <point x="559" y="373" type="curve" smooth="yes"/>
      <point x="559" y="248"/>
      <point x="473" y="147"/>
      <point x="368" y="147" type="curve" smooth="yes"/>
      <point x="235" y="147" type="line"/>
      <point x="264" y="283" type="line"/>
      <point x="411" y="283" type="line"/>
      <point x="439" y="418" type="line"/>
      <point x="293" y="418" type="line"/>
      <point x="322" y="553" type="line"/>
    </contour>
  </outline>
</glyph>
<glyph name="multiply" format="2">
  <advance width="534"/>
  <unicode hex="00D7"/>
  <outline>
    <contour>
      <point x="103" y="130" type="line"/>
      <point x="273" y="280" type="line"/>
      <point x="377" y="132" type="line"/>
      <point x="461" y="205" type="line"/>
      <point x="356" y="354" type="line"/>
      <point x="527" y="505" type="line"/>
      <point x="470" y="584" type="line"/>
      <point x="299" y="433" type="line"/>
      <point x="193" y="584" type="line"/>
      <point x="110" y="511" type="line"/>
      <point x="216" y="360" type="line"/>
      <point x="45" y="209" type="line"/>
    </contour>
  </outline>
</glyph>
<glyph name="Oslash" format="2">
  <advance width="799"/>
  <unicode hex="00D8"/>
  <outline>
    <contour>
      <point x="128" y="-5" type="line"/>
      <point x="190" y="55" type="line"/>
      <point x="245" y="13"/>
      <point x="314" y="-11"/>
      <point x="392" y="-11" type="curve" smooth="yes"/>
      <point x="601" y="-11"/>
      <point x="772" y="165"/>
      <point x="772" y="380" type="curve" smooth="yes"/>
      <point x="772" y="451"/>
      <point x="752" y="515"/>
      <point x="718" y="568" type="curve"/>
      <point x="860" y="705" type="line"/>
      <point x="714" y="705" type="line"/>
      <point x="650" y="642" type="line"/>
      <point x="594" y="686"/>
      <point x="523" y="711"/>
      <point x="444" y="711" type="curve" smooth="yes"/>
      <point x="235" y="711"/>
      <point x="63" y="535"/>
      <point x="63" y="320" type="curve" smooth="yes"/>
      <point x="63" y="247"/>
      <point x="84" y="181"/>
      <point x="120" y="128" type="curve"/>
      <point x="-17" y="-5" type="line"/>
    </contour>
    <contour>
      <point x="237" y="331" type="curve" smooth="yes"/>
      <point x="237" y="457"/>
      <point x="324" y="558"/>
      <point x="433" y="558" type="curve" smooth="yes"/>
      <point x="470" y="558"/>
      <point x="503" y="546"/>
      <point x="530" y="526" type="curve"/>
      <point x="250" y="254" type="line"/>
      <point x="242" y="277"/>
      <point x="237" y="303"/>
    </contour>
    <contour>
      <point x="599" y="369" type="curve" smooth="yes"/>
      <point x="599" y="243"/>
      <point x="512" y="142"/>
      <point x="403" y="142" type="curve" smooth="yes"/>
      <point x="368" y="142"/>
      <point x="336" y="153"/>
      <point x="310" y="172" type="curve"/>
      <point x="588" y="441" type="line"/>
      <point x="595" y="419"/>
      <point x="599" y="395"/>
    </contour>
  </outline>
</glyph>
<glyph name="germandbls" format="2">
  <advance width="714"/>
  <unicode hex="00DF"/>
  <outline>
    <contour>
      <point x="475" y="359" type="curve" smooth="yes"/>
      <point x="475" y="411"/>
      <point x="661" y="423"/>
      <point x="661" y="574" type="curve" smooth="yes"/>
      <point x="661" y="685"/>
      <point x="551" y="765"/>
      <point x="399" y="765" type="curve" smooth="yes"/>
      <point x="248" y="765"/>
      <point x="144" y="678"/>
      <point x="112" y="526" type="curve" smooth="yes"/>
      <point x="4" y="0" type="line"/>
      <point x="164" y="0" type="line"/>
      <point x="267" y="503" type="line" smooth="yes"/>
      <point x="284" y="587"/>
      <point x="329" y="630"/>
      <point x="398" y="630" type="curve" smooth="yes"/>
      <point x="455" y="630"/>
      <point x="501" y="601"/>
      <point x="501" y="565" type="curve" smooth="yes"/>
      <point x="501" y="482"/>
      <point x="328" y="487"/>
      <point x="328" y="340" type="curve" smooth="yes"/>
      <point x="328" y="292"/>
      <point x="351" y="255"/>
      <point x="396" y="233" type="curve" smooth="yes"/>
      <point x="469" y="197" type="line" smooth="yes"/>
      <point x="504" y="180"/>
      <point x="516" y="168"/>
      <point x="516" y="148" type="curve" smooth="yes"/>
      <point x="516" y="120"/>
      <point x="494" y="103"/>
      <point x="458" y="103" type="curve" smooth="yes"/>
      <point x="416" y="103"/>
      <point x="370" y="128"/>
      <point x="335" y="168" type="curve"/>
      <point x="252" y="76" type="line"/>
      <point x="300" y="19"/>
      <point x="377" y="-13"/>
      <point x="462" y="-13" type="curve" smooth="yes"/>
      <point x="578" y="-13"/>
      <point x="659" y="59"/>
      <point x="659" y="163" type="curve" smooth="yes"/>
      <point x="659" y="216"/>
      <point x="628" y="260"/>
      <point x="567" y="293" type="curve" smooth="yes"/>
      <point x="501" y="328" type="line" smooth="yes"/>
      <point x="484" y="337"/>
      <point x="475" y="347"/>
    </contour>
  </outline>
</glyph>
<glyph name="ae" format="2">
  <advance width="890"/>
  <unicode hex="00E6"/>
  <outline>
    <contour>
      <point x="201" y="-5" type="curve" smooth="yes"/>
      <point x="278" y="-5"/>
      <point x="339" y="17"/>
      <point x="406" y="70" type="curve"/>
      <point x="451" y="19"/>
      <point x="518" y="-11"/>
      <point x="598" y="-11" type="curve" smooth="yes"/>
      <point x="673" y="-11"/>
      <point x="733" y="9"/>
      <point x="799" y="57" type="curve"/>
      <point x="712" y="155" type="line"/>
      <point x="688" y="130"/>
      <point x="654" y="117"/>
      <point x="615" y="117" type="curve" smooth="yes"/>
      <point x="553" y="117"/>
      <point x="508" y="157"/>
      <point x="499" y="217" type="curve"/>
      <point x="845" y="217" type="line"/>
      <point x="849" y="238"/>
      <point x="851" y="262"/>
      <point x="851" y="293" type="curve" smooth="yes"/>
      <point x="851" y="430"/>
      <point x="760" y="524"/>
      <point x="626" y="524" type="curve" smooth="yes"/>
      <point x="563" y="524"/>
      <point x="505" y="501"/>
      <point x="458" y="464" type="curve"/>
      <point x="426" y="501"/>
      <point x="374" y="523"/>
      <point x="304" y="523" type="curve" smooth="yes"/>
      <point x="242" y="523"/>
      <point x="177" y="510"/>
      <point x="92" y="480" type="curve"/>
      <point x="128" y="366" type="line"/>
      <point x="185" y="384"/>
      <point x="223" y="392"/>
      <point x="256" y="392" type="curve" smooth="yes"/>
      <point x="331" y="392"/>
      <point x="368" y="362"/>
      <point x="357" y="310" type="curve"/>
      <point x="356" y="306" type="line"/>
      <point x="354" y="298"/>
      <point x="353" y="291"/>
      <point x="351" y="284" type="curve"/>
      <point x="316" y="295"/>
      <point x="277" y="301"/>
      <point x="237" y="301" type="curve" smooth="yes"/>
      <point x="110" y="300"/>
      <point x="32" y="237"/>
      <point x="32" y="135" type="curve" smooth="yes"/>
      <point x="32" y="50"/>
      <point x="99" y="-5"/>
    </contour>
    <contour>
      <point x="617" y="397" type="curve" smooth="yes"/>
      <point x="668" y="397"/>
      <point x="703" y="363"/>
      <point x="711" y="308" type="curve"/>
      <point x="509" y="308" type="line"/>
      <point x="528" y="362"/>
      <point x="568" y="397"/>
    </contour>
    <contour>
      <point x="173" y="148" type="curve" smooth="yes"/>
      <point x="173" y="185"/>
      <point x="203" y="206"/>
      <point x="258" y="206" type="curve" smooth="yes"/>
      <point x="291" y="206"/>
      <point x="323" y="202"/>
      <point x="350" y="195" type="curve"/>
      <point x="352" y="175"/>
      <point x="357" y="155"/>
      <point x="364" y="137" type="curve"/>
      <point x="331" y="114"/>
      <point x="290" y="100"/>
      <point x="251" y="100" type="curve" smooth="yes"/>
      <point x="201" y="100"/>
      <point x="173" y="118"/>
    </contour>
  </outline>
</glyph>
<glyph name="oslash" format="2">
  <advance width="611"/>
  <unicode hex="00F8"/>
  <outline>
    <contour>
      <point x="-17" y="-5" type="line"/>
      <point x="92" y="-5" type="line"/>
      <point x="134" y="37" type="line"/>
      <point x="175" y="7"/>
      <point x="225" y="-10"/>
      <point x="282" y="-10" type="curve" smooth="yes"/>
      <point x="440" y="-10"/>
      <point x="570" y="123"/>
      <point x="570" y="284" type="curve" smooth="yes"/>
      <point x="570" y="337"/>
      <point x="555" y="385"/>
      <point x="529" y="424" type="curve"/>
      <point x="628" y="521" type="line"/>
      <point x="517" y="521" type="line"/>
      <point x="474" y="479" type="line"/>
      <point x="435" y="508"/>
      <point x="384" y="524"/>
      <point x="328" y="524" type="curve" smooth="yes"/>
      <point x="168" y="524"/>
      <point x="40" y="393"/>
      <point x="40" y="231" type="curve" smooth="yes"/>
      <point x="40" y="178"/>
      <point x="55" y="130"/>
      <point x="81" y="92" type="curve"/>
    </contour>
    <contour>
      <point x="196" y="239" type="curve" smooth="yes"/>
      <point x="196" y="323"/>
      <point x="250" y="389"/>
      <point x="318" y="389" type="curve" smooth="yes"/>
      <point x="338" y="389"/>
      <point x="355" y="384"/>
      <point x="369" y="375" type="curve"/>
      <point x="199" y="208" type="line"/>
      <point x="197" y="217"/>
      <point x="196" y="228"/>
    </contour>
    <contour>
      <point x="291" y="127" type="curve" smooth="yes"/>
      <point x="272" y="127"/>
      <point x="255" y="132"/>
      <point x="241" y="141" type="curve"/>
      <point x="412" y="309" type="line"/>
      <point x="413" y="300"/>
      <point x="414" y="290"/>
      <point x="414" y="280" type="curve" smooth="yes"/>
      <point x="414" y="192"/>
      <point x="362" y="127"/>
    </contour>
  </outline>
</glyph>
<glyph name="hcircumflex" format="2">
  <advance width="606"/>
  <unicode hex="0125"/>
  <outline>
    <contour>
      <point x="328" y="782" type="line"/>
      <point x="445" y="782" type="line"/>
      <point x="350" y="933" type="line"/>
      <point x="197" y="933" type="line"/>
      <point x="41" y="782" type="line"/>
      <point x="168" y="782" type="line"/>
      <point x="264" y="865" type="line"/>
    </contour>
    <contour>
      <point x="6" y="0" type="line"/>
      <point x="165" y="0" type="line"/>
      <point x="239" y="354" type="line"/>
      <point x="267" y="383"/>
      <point x="296" y="397"/>
      <point x="328" y="397" type="curve" smooth="yes"/>
      <point x="382" y="397"/>
      <point x="410" y="356"/>
      <point x="397" y="297" type="curve"/>
      <point x="333" y="0" type="line"/>
      <point x="492" y="0" type="line"/>
      <point x="564" y="337" type="line" smooth="yes"/>
      <point x="587" y="444"/>
      <point x="531" y="522"/>
      <point x="429" y="522" type="curve"/>
      <point x="364" y="522"/>
      <point x="304" y="490"/>
      <point x="255" y="430" type="curve"/>
      <point x="313" y="710" type="line"/>
      <point x="157" y="710" type="line"/>
    </contour>
  </outline>
</glyph>
<glyph name="Hbar" format="2">
  <advance width="813"/>
  <unicode hex="0126"/>
  <outline>
    <contour>
      <point x="43" y="0" type="line"/>
      <point x="211" y="0" type="line"/>
      <point x="271" y="282" type="line"/>
      <point x="549" y="282" type="line"/>
      <point x="489" y="0" type="line"/>
      <point x="657" y="0" type="line"/>
      <point x="763" y="499" type="line"/>
      <point x="848" y="499" type="line"/>
      <point x="876" y="614" type="line"/>
      <point x="788" y="614" type="line"/>
      <point x="806" y="700" type="line"/>
      <point x="638" y="700" type="line"/>
      <point x="620" y="614" type="line"/>
      <point x="342" y="614" type="line"/>
      <point x="360" y="700" type="line"/>
      <point x="192" y="700" type="line"/>
      <point x="174" y="614" type="line"/>
      <point x="89" y="614" type="line"/>
      <point x="61" y="499" type="line"/>
      <point x="149" y="499" type="line"/>
    </contour>
    <contour>
      <point x="301" y="423" type="line"/>
      <point x="317" y="499" type="line"/>
      <point x="595" y="499" type="line"/>
      <point x="579" y="423" type="line"/>
    </contour>
  </outline>
</glyph>
<glyph name="lacute" format="2">
  <advance width="283"/>
  <unicode hex="013A"/>
  <outline>
    <contour>
      <point x="327" y="926" type="line"/>
      <point x="160" y="780" type="line"/>
      <point x="304" y="780" type="line"/>
      <point x="521" y="926" type="line"/>
    </contour>
    <contour>
      <point x="6" y="0" type="line"/>
      <point x="165" y="0" type="line"/>
      <point x="313" y="710" type="line"/>
      <point x="155" y="710" type="line"/>
    </contour>
  </outline>
</glyph>
<glyph name="lslash" format="2">
  <advance width="336"/>
  <unicode hex="0142"/>
  <outline>
    <contour>
      <point x="17" y="311" type="line"/>
      <point x="-14" y="160" type="line"/>
      <point x="80" y="218" type="line"/>
      <point x="34" y="0" type="line"/>
      <point x="193" y="0" type="line"/>
      <point x="263" y="331" type="line"/>
      <point x="363" y="393" type="line"/>
      <point x="394" y="545" type="line"/>
      <point x="295" y="484" type="line"/>
      <point x="349" y="740" type="line"/>
      <point x="186" y="715" type="line"/>
      <point x="113" y="370" type="line"/>
    </contour>
  </outline>
</glyph>
<glyph name="Eng" format="2">
  <advance width="773"/>
  <unicode hex="014A"/>
  <outline>
    <contour>
      <point x="492" y="10" type="line"/>
      <point x="480" y="-44" type="line" smooth="yes"/>
      <point x="474" y="-74"/>
      <point x="456" y="-88"/>
      <point x="426" y="-88" type="curve" smooth="yes"/>
      <point x="403" y="-88"/>
      <point x="388" y="-85"/>
      <point x="375" y="-82" type="curve"/>
      <point x="349" y="-203" type="line"/>
      <point x="367" y="-210"/>
      <point x="400" y="-218"/>
      <point x="438" y="-218" type="curve" smooth="yes"/>
      <point x="537" y="-218"/>
      <point x="605" y="-163"/>
      <point x="627" y="-61" type="curve" smooth="yes"/>
      <point x="789" y="700" type="line"/>
      <point x="630" y="700" type="line"/>
      <point x="542" y="283" type="line"/>
      <point x="334" y="700" type="line"/>
      <point x="170" y="700" type="line"/>
      <point x="21" y="0" type="line"/>
      <point x="180" y="0" type="line"/>
      <point x="272" y="443" type="line"/>
    </contour>
  </outline>
</glyph>
<glyph name="eng" format="2">
  <advance width="607"/>
  <unicode hex="014B"/>
  <outline>
    <contour>
      <point x="6" y="0" type="line"/>
      <point x="165" y="0" type="line"/>
      <point x="243" y="358" type="line"/>
      <point x="270" y="385"/>
      <point x="297" y="397"/>
      <point x="328" y="397" type="curve" smooth="yes"/>
      <point x="382" y="397"/>
      <point x="410" y="356"/>
      <point x="397" y="297" type="curve" smooth="yes"/>
      <point x="323" y="-47" type="line" smooth="yes"/>
      <point x="317" y="-74"/>
      <point x="301" y="-87"/>
      <point x="274" y="-87" type="curve" smooth="yes"/>
      <point x="251" y="-87"/>
      <point x="237" y="-85"/>
      <point x="222" y="-81" type="curve"/>
      <point x="196" y="-207" type="line"/>
      <point x="215" y="-215"/>
      <point x="257" y="-222"/>
      <point x="287" y="-222" type="curve" smooth="yes"/>
      <point x="388" y="-222"/>
      <point x="457" y="-166"/>
      <point x="479" y="-64" type="curve" smooth="yes"/>
      <point x="564" y="337" type="line" smooth="yes"/>
      <point x="586" y="445"/>
      <point x="530" y="522"/>
      <point x="429" y="522" type="curve" smooth="yes"/>
      <point x="366" y="522"/>
      <point x="308" y="492"/>
      <point x="260" y="436" type="curve"/>
      <point x="277" y="516" type="line"/>
      <point x="118" y="516" type="line"/>
    </contour>
  </outline>
</glyph>
<glyph name="OE" format="2">
  <advance width="1077"/>
  <unicode hex="0152"/>
  <outline>
    <contour>
      <point x="391" y="0" type="curve" smooth="yes"/>
      <point x="960" y="0" type="line"/>
      <point x="991" y="149" type="line"/>
      <point x="667" y="149" type="line"/>
      <point x="697" y="188"/>
      <point x="719" y="233"/>
      <point x="731" y="281" type="curve"/>
      <point x="902" y="281" type="line"/>
      <point x="933" y="425" type="line"/>
      <point x="741" y="425" type="line"/>
      <point x="734" y="470"/>
      <point x="718" y="513"/>
      <point x="695" y="551" type="curve"/>
      <point x="1077" y="551" type="line"/>
      <point x="1108" y="700" type="line"/>
      <point x="437" y="700" type="line" smooth="yes"/>
      <point x="223" y="700"/>
      <point x="57" y="536"/>
      <point x="57" y="323" type="curve" smooth="yes"/>
      <point x="57" y="133"/>
      <point x="194" y="0"/>
    </contour>
    <contour>
      <point x="392" y="152" type="curve" smooth="yes"/>
      <point x="294" y="152"/>
      <point x="223" y="228"/>
      <point x="223" y="333" type="curve" smooth="yes"/>
      <point x="223" y="452"/>
      <point x="310" y="548"/>
      <point x="416" y="548" type="curve" smooth="yes"/>
      <point x="512" y="548"/>
      <point x="582" y="471"/>
      <point x="582" y="367" type="curve" smooth="yes"/>
      <point x="582" y="249"/>
      <point x="496" y="152"/>
    </contour>
  </outline>
</glyph>
<glyph name="tcaron" format="2">
  <advance width="448"/>
  <unicode hex="0165"/>
  <outline>
    <contour>
      <point x="487" y="796" type="line"/>
      <point x="433" y="597" type="line"/>
      <point x="553" y="597" type="line"/>
      <point x="648" y="824" type="line"/>
    </contour>
    <contour>
      <point x="109" y="168" type="line"/>
      <point x="85" y="55"/>
      <point x="139" y="-6"/>
      <point x="262" y="-6" type="curve" smooth="yes"/>
      <point x="298" y="-6"/>
      <point x="338" y="-2"/>
      <point x="363" y="5" type="curve"/>
      <point x="391" y="135" type="line"/>
      <point x="357" y="128"/>
      <point x="348" y="127"/>
      <point x="332" y="127" type="curve" smooth="yes"/>
      <point x="280" y="127"/>
      <point x="262" y="146"/>
      <point x="273" y="193" type="curve" smooth="yes"/>
      <point x="315" y="391" type="line"/>
      <point x="450" y="391" type="line"/>
      <point x="478" y="516" type="line"/>
      <point x="342" y="516" type="line"/>
      <point x="380" y="692" type="line"/>
      <point x="214" y="659" type="line"/>
      <point x="183" y="516" type="line"/>
      <point x="87" y="516" type="line"/>
      <point x="59" y="391" type="line"/>
      <point x="157" y="391" type="line"/>
    </contour>
  </outline>
</glyph>
<glyph name="Tbar" format="2">
  <advance width="652"/>
  <unicode hex="0166"/>
  <outline>
    <contour>
      <point x="148" y="399" type="line"/>
      <point x="120" y="274" type="line"/>
      <point x="244" y="274" type="line"/>
      <point x="186" y="0" type="line"/>
      <point x="355" y="0" type="line"/>
      <point x="413" y="274" type="line"/>
      <point x="536" y="274" type="line"/>
      <point x="564" y="399" type="line"/>
      <point x="440" y="399" type="line"/>
      <point x="473" y="553" type="line"/>
      <point x="691" y="553" type="line"/>
      <point x="724" y="700" type="line"/>
      <point x="114" y="700" type="line"/>
      <point x="81" y="553" type="line"/>
      <point x="304" y="553" type="line"/>
      <point x="271" y="399" type="line"/>
    </contour>
  </outline>
</glyph>
<glyph name="dotlessj" format="2">
  <advance width="283"/>
  <unicode hex="0237"/>
  <anchor x="198" y="516" name="top"/>
  <outline>
    <contour>
      <point x="-132" y="-208" type="line"/>
      <point x="-113" y="-216"/>
      <point x="-71" y="-223"/>
      <point x="-41" y="-223" type="curve" smooth="yes"/>
      <point x="61" y="-223"/>
      <point x="130" y="-166"/>
      <point x="152" y="-66" type="curve" smooth="yes"/>
      <point x="278" y="516" type="line"/>
      <point x="118" y="516" type="line"/>
      <point x="-4" y="-52" type="line" smooth="yes"/>
      <point x="-10" y="-79"/>
      <point x="-26" y="-92"/>
      <point x="-55" y="-92" type="curve" smooth="yes"/>
      <point x="-77" y="-92"/>
      <point x="-92" y="-90"/>
      <point x="-106" y="-86" type="curve"/>
    </contour>
  </outline>
</glyph>
<glyph name="circumflex" format="2">
  <advance width="510"/>
  <unicode hex="02C6"/>
  <anchor x="313" y="516" name="_top"/>
  <outline>
    <contour>
      <point x="414" y="599" type="line"/>
      <point x="531" y="599" type="line"/>
      <point x="436" y="750" type="line"/>
      <point x="283" y="750" type="line"/>
      <point x="127" y="599" type="line"/>
      <point x="254" y="599" type="line"/>
      <point x="350" y="682" type="line"/>
    </contour>
  </outline>
</glyph>
<glyph name="caron" format="2">
  <advance width="510"/>
  <unicode hex="02C7"/>
  <anchor x="309" y="516" name="_top"/>
  <outline>
    <contour>
      <point x="275" y="755" type="line"/>
      <point x="157" y="755" type="line"/>
      <point x="253" y="604" type="line"/>
      <point x="406" y="604" type="line"/>
      <point x="561" y="755" type="line"/>
      <point x="435" y="755" type="line"/>
      <point x="339" y="673" type="line"/>
    </contour>
  </outline>
</glyph>
<glyph name="breve" format="2">
  <advance width="510"/>
  <unicode hex="02D8"/>
  <anchor x="311" y="516" name="_top"/>
  <outline>
    <contour>
      <point x="337" y="687" type="curve"/>
      <point x="288" y="687"/>
      <point x="261" y="715"/>
      <point x="256" y="772" type="curve"/>
      <point x="168" y="750" type="line"/>
      <point x="172" y="657"/>
      <point x="234" y="600"/>
      <point x="332" y="600" type="curve"/>
      <point x="425" y="600"/>
      <point x="498" y="649"/>
      <point x="537" y="736" type="curve"/>
      <point x="445" y="764" type="line"/>
      <point x="420" y="714"/>
      <point x="382" y="687"/>
    </contour>
  </outline>
</glyph>
<glyph name="dotaccent" format="2">
  <advance width="308"/>
  <unicode hex="02D9"/>
  <anchor x="210" y="516" name="_top"/>
  <outline>
    <contour>
      <point x="238" y="602" type="curve" smooth="yes"/>
      <point x="285" y="602"/>
      <point x="327" y="645"/>
      <point x="327" y="694" type="curve" smooth="yes"/>
      <point x="327" y="735"/>
      <point x="297" y="766"/>
      <point x="258" y="766" type="curve" smooth="yes"/>
      <point x="209" y="766"/>
      <point x="167" y="724"/>
      <point x="167" y="674" type="curve" smooth="yes"/>
      <point x="167" y="633"/>
      <point x="197" y="602"/>
    </contour>
  </outline>
</glyph>
<glyph name="tilde" format="2">
  <advance width="510"/>
  <unicode hex="02DC"/>
  <anchor x="308" y="516" name="_top"/>
  <outline>
    <contour>
      <point x="209" y="594" type="line"/>
      <point x="231" y="645"/>
      <point x="245" y="662"/>
      <point x="264" y="662" type="curve"/>
      <point x="305" y="662"/>
      <point x="349" y="590"/>
      <point x="419" y="590" type="curve" smooth="yes"/>
      <point x="470" y="590"/>
      <point x="513" y="634"/>
      <point x="553" y="725" type="curve"/>
      <point x="470" y="755" type="line"/>
      <point x="445" y="700"/>
      <point x="436" y="688"/>
      <point x="421" y="688" type="curve"/>
      <point x="384" y="688"/>
      <point x="331" y="760"/>
      <point x="265" y="760" type="curve" smooth="yes"/>
      <point x="212" y="760"/>
      <point x="167" y="717"/>
      <point x="127" y="625" type="curve"/>
    </contour>
  </outline>
</glyph>
<glyph name="uni2085" format="2">
  <advance width="323"/>
  <unicode hex="2085"/>
  <outline>
    <contour>
      <point x="18" y="167" type="line"/>
      <point x="78" y="143" type="line"/>
      <point x="94" y="151"/>
      <point x="106" y="154"/>
      <point x="123" y="154" type="curve" smooth="yes"/>
      <point x="152" y="154"/>
      <point x="174" y="137"/>
      <point x="174" y="114" type="curve" smooth="yes"/>
      <point x="174" y="91"/>
      <point x="149" y="71"/>
      <point x="120" y="71" type="curve"/>
      <point x="94" y="71"/>
      <point x="74" y="80"/>
      <point x="39" y="107" type="curve"/>
      <point x="-17" y="44" type="line"/>
      <point x="19" y="11"/>
      <point x="62" y="-4"/>
      <point x="118" y="-4" type="curve"/>
      <point x="205" y="-4"/>
      <point x="270" y="53"/>
      <point x="270" y="129" type="curve" smooth="yes"/>
      <point x="270" y="184"/>
      <point x="223" y="223"/>
      <point x="157" y="223" type="curve" smooth="yes"/>
      <point x="142" y="223"/>
      <point x="126" y="220"/>
      <point x="108" y="212" type="curve"/>
      <point x="124" y="273" type="line"/>
      <point x="282" y="273" type="line"/>
      <point x="299" y="350" type="line"/>
      <point x="63" y="350" type="line"/>
    </contour>
  </outline>
</glyph>
<glyph name="uni2086" format="2">
  <advance width="340"/>
  <unicode hex="2086"/>
  <outline>
    <contour>
      <point x="141" y="-6" type="curve"/>
      <point x="219" y="-6"/>
      <point x="282" y="52"/>
      <point x="282" y="123" type="curve" smooth="yes"/>
      <point x="282" y="175"/>
      <point x="243" y="211"/>
      <point x="187" y="211" type="curve"/>
      <point x="152" y="211"/>
      <point x="120" y="196"/>
      <point x="97" y="170" type="curve"/>
      <point x="106" y="230"/>
      <point x="144" y="274"/>
      <point x="188" y="274" type="curve"/>
      <point x="215" y="274"/>
      <point x="239" y="263"/>
      <point x="258" y="243" type="curve"/>
      <point x="313" y="308" type="line"/>
      <point x="282" y="340"/>
      <point x="246" y="355"/>
      <point x="203" y="355" type="curve"/>
      <point x="94" y="355"/>
      <point x="4" y="258"/>
      <point x="4" y="140" type="curve" smooth="yes"/>
      <point x="4" y="49"/>
      <point x="56" y="-6"/>
    </contour>
    <contour>
      <point x="152" y="144" type="curve"/>
      <point x="176" y="144"/>
      <point x="193" y="130"/>
      <point x="193" y="111" type="curve" smooth="yes"/>
      <point x="193" y="90"/>
      <point x="174" y="74"/>
      <point x="149" y="74" type="curve"/>
      <point x="120" y="74"/>
      <point x="100" y="93"/>
      <point x="95" y="124" type="curve"/>
      <point x="113" y="137"/>
      <point x="133" y="144"/>
    </contour>
  </outline>
</glyph>
<glyph name="notequal" format="2">
  <advance width="551"/>
  <unicode hex="2260"/>
  <outline>
    <contour>
      <point x="20" y="81" type="line"/>
      <point x="138" y="81" type="line"/>
      <point x="223" y="189" type="line"/>
      <point x="480" y="189" type="line"/>
      <point x="506" y="313" type="line"/>
      <point x="321" y="313" type="line"/>
      <point x="382" y="391" type="line"/>
      <point x="523" y="391" type="line"/>
      <point x="549" y="515" type="line"/>
      <point x="480" y="515" type="line"/>
      <point x="563" y="621" type="line"/>
      <point x="447" y="621" type="line"/>
      <point x="363" y="515" type="line"/>
      <point x="108" y="515" type="line"/>
      <point x="82" y="391" type="line"/>
      <point x="265" y="391" type="line"/>
      <point x="203" y="313" type="line"/>
      <point x="65" y="313" type="line"/>
      <point x="39" y="189" type="line"/>
      <point x="105" y="189" type="line"/>
    </contour>
  </outline>
</glyph>
<glyph name="ccedilla" format="2">
  <advance width="528"/>
  <outline>
    <contour>
      <point x="300" y="129" type="curve" smooth="yes"/>
      <point x="236" y="129"/>
      <point x="196" y="171"/>
      <point x="196" y="239" type="curve" smooth="yes"/>
      <point x="196" y="320"/>
      <point x="250" y="385"/>
      <point x="318" y="385" type="curve" smooth="yes"/>
      <point x="366" y="385"/>
      <point x="400" y="365"/>
      <point x="424" y="322" type="curve"/>
      <point x="536" y="414" type="line"/>
      <point x="492" y="484"/>
      <point x="413" y="524"/>
      <point x="321" y="524" type="curve" smooth="yes"/>
      <point x="163" y="524"/>
      <point x="38" y="392"/>
      <point x="38" y="225" type="curve" smooth="yes"/>
      <point x="38" y="102"/>
      <point x="120" y="8"/>
      <point x="237" y="-8" type="curve"/>
      <point x="194" y="-109" type="line"/>
      <point x="235" y="-109" type="line" smooth="yes"/>
      <point x="266" y="-109"/>
      <point x="286" y="-123"/>
      <point x="286" y="-144" type="curve" smooth="yes"/>
      <point x="286" y="-167"/>
      <point x="265" y="-182"/>
      <point x="233" y="-182" type="curve" smooth="yes"/>
      <point x="203" y="-182"/>
      <point x="175" y="-170"/>
      <point x="156" y="-150" type="curve"/>
      <point x="101" y="-205" type="line"/>
      <point x="131" y="-238"/>
      <point x="175" y="-253"/>
      <point x="235" y="-253" type="curve" smooth="yes"/>
      <point x="312" y="-253"/>
      <point x="373" y="-201"/>
      <point x="373" y="-136" type="curve" smooth="yes"/>
      <point x="373" y="-94"/>
      <point x="342" y="-66"/>
      <point x="288" y="-59" type="curve"/>
      <point x="310" y="-9" type="line"/>
      <point x="373" y="-1"/>
      <point x="431" y="26"/>
      <point x="476" y="71" type="curve"/>
      <point x="398" y="172" type="line"/>
      <point x="370" y="143"/>
      <point x="338" y="129"/>
    </contour>
  </outline>
</glyph>
